<svg xmlns="http://www.w3.org/2000/svg" viewBox="0 0 64 64">
  <!-- Favicon de Localiator: el búho sobre el naranja de marca (desaturado).
       A 16px el búho suelto se pierde, por eso conserva el fondo: lo que se
       reconoce en una pestaña es la silueta verde sobre naranja. -->
  <rect width="64" height="64" rx="14" fill="#d97036"/>
  <g transform="translate(4 13) scale(0.8235)">
    <path d="M4.5 6C3 2.5 6 0.5 9.5 1.6C14 3 17 3.4 21 2.6C26 1.6 31 1.4 34 2.6C37 1.4 42 1.6 47 2.6C51 3.4 54 3 58.5 1.6C62 0.5 65 2.5 63.5 6C62 9.5 61.5 12 62 16C63 26 58 34 50 36.5C44 38.3 39 36.5 35.8 32.8C35 31.9 33 31.9 32.2 32.8C29 36.5 24 38.3 18 36.5C10 34 5 26 6 16C6.5 12 6 9.5 4.5 6Z"
      fill="#7cb862" stroke="#141311" stroke-width="2.6" stroke-linejoin="round"/>
    <circle cx="21" cy="17.5" r="9" fill="#fff" stroke="#141311" stroke-width="2.6"/>
    <circle cx="47" cy="17.5" r="9" fill="#fff" stroke="#141311" stroke-width="2.6"/>
    <circle cx="21" cy="17.5" r="4" fill="#141311"/>
    <circle cx="47" cy="17.5" r="4" fill="#141311"/>
    <circle cx="18.9" cy="19.4" r="1.5" fill="#fff"/>
    <circle cx="44.9" cy="19.4" r="1.5" fill="#fff"/>
    <path d="M34 12.8C36.6 14.4 37.2 19.6 35.6 24.8C34.9 27 33.1 27 32.4 24.8C30.8 19.6 31.4 14.4 34 12.8Z"
      fill="#e08a48" stroke="#141311" stroke-width="2.2" stroke-linejoin="round"/>
  </g>
</svg>
